# xmcd
#
# Track frame offsets: 
#        150
#        19083
#        47289
#        70904
#        90858
#        112977
#        137958
#        155732
#        184866
#        202647
#        227307
#        255845
#        278745
#        310868
#        330812
#
# Disc length: 4789 seconds
#
# Revision: 0
# Processed by: cddbd v1.5.2PL0 Copyright (c) Steve Scherf et al.
# Submitted via: ExactAudioCopyFreeDBPlugin 1.0
#
DISCID=ad12b30f
DTITLE=Yolanda Brown - Love Politics War
DYEAR=2017
DGENRE=Jazz
TTITLE0=Million Billion Love
TTITLE1=Time And Tide
TTITLE2=Dream Dream Repeat Feat. Casey Benjamin
TTITLE3=This Kind Of Love Feat. Raheem Devaughn
TTITLE4=Heritage
TTITLE5=Feel No Pain Feat. Dame Evelyn Glennie and Bill Laurance
TTITLE6=No More War Feat. Phebe Edwards
TTITLE7=Neutral Ground Feat. Keyon Harrold and Jon Cleary
TTITLE8=Roll With It
TTITLE9=Crocodile Tears
TTITLE10=General PoliTricks Feat. Rick Leon James
TTITLE11=Prosper Feat. Raheem Devaughn
TTITLE12=Never Too Late
TTITLE13=Sugarcane
TTITLE14=Love At War Feat. Floacist
EXTD=
EXTT0=
EXTT1=
EXTT2=
EXTT3=
EXTT4=
EXTT5=
EXTT6=
EXTT7=
EXTT8=
EXTT9=
EXTT10=
EXTT11=
EXTT12=
EXTT13=
EXTT14=
PLAYORDER=
